<?xml version="1.0" standalone="no"?>
<!DOCTYPE svg PUBLIC "-//W3C//DTD SVG 20010904//EN"
 "http://www.w3.org/TR/2001/REC-SVG-20010904/DTD/svg10.dtd">
<svg version="1.0" xmlns="http://www.w3.org/2000/svg"
 width="700.000000pt" height="700.000000pt" viewBox="0 0 700.000000 700.000000"
 preserveAspectRatio="xMidYMid meet">
<metadata>
Created by potrace 1.11, written by Peter Selinger 2001-2013
</metadata>
<g transform="translate(0.000000,700.000000) scale(0.100000,-0.100000)"
fill="#000000" stroke="none">
<path d="M2709 5683 c-36 -6 -71 -47 -98 -118 -13 -33 -30 -73 -37 -90 -7 -16
-36 -88 -64 -160 -28 -71 -54 -133 -59 -137 -4 -5 -128 33 -276 82 -149 50
-284 93 -302 96 -59 9 -123 -45 -123 -105 0 -11 43 -149 95 -307 53 -157 95
-287 93 -289 -2 -1 -107 -43 -234 -94 -134 -53 -240 -102 -253 -115 -30 -32
-36 -77 -17 -117 14 -28 59 -59 268 -184 139 -82 266 -160 284 -172 l33 -22
47 76 c26 42 53 93 60 113 17 49 55 117 115 207 167 248 403 452 674 583 111
54 155 68 155 51 0 -20 28 -11 67 22 22 17 56 45 76 61 20 16 37 33 37 37 0 5
-148 195 -233 299 -7 8 -28 35 -47 60 -19 25 -37 47 -41 50 -3 3 -31 38 -64
78 -52 66 -100 105 -122 101 -4 -1 -20 -4 -34 -6z"/>
<path d="M4835 5352 c-99 -22 -193 -107 -225 -207 -18 -54 -16 -153 3 -195 41
-92 107 -250 107 -257 0 -4 -126 -75 -280 -158 -154 -82 -313 -171 -353 -196
-79 -49 -128 -110 -149 -183 -18 -64 -14 -164 9 -216 39 -88 364 -597 411
-644 52 -53 145 -101 219 -116 27 -5 200 -9 384 -9 184 0 348 0 366 -1 l32 0
1 -389 c0 -237 4 -400 10 -418 6 -16 24 -37 41 -47 27 -16 61 -18 362 -18 183
0 346 1 364 1 61 2 113 82 91 142 -5 13 -55 70 -111 126 l-101 103 -1 154 c0
143 1 154 17 145 9 -5 93 -55 185 -111 187 -113 217 -127 252 -122 58 10 71
32 193 335 70 174 118 307 118 327 0 25 -9 43 -34 68 -47 47 -80 45 -190 -10
l-89 -45 -46 37 c-25 20 -60 48 -76 62 -17 14 -48 39 -69 55 -22 17 -76 60
-121 96 -132 108 -206 149 -300 163 -16 2 -220 5 -452 5 l-422 1 -61 90 -60
90 42 21 c24 12 68 35 98 52 340 182 381 210 421 289 29 57 34 82 34 168 -1
85 12 53 -178 441 -136 276 -160 309 -255 351 -44 20 -143 30 -187 20z"/>
<path d="M3779 5335 c-2 -1 -20 -5 -39 -8 -20 -2 -58 -14 -85 -26 -273 -121
-349 -477 -148 -697 30 -33 133 -109 133 -98 0 4 6 2 13 -4 18 -15 86 -32 148
-36 237 -18 444 166 462 408 4 42 -1 79 -17 151 -28 124 -158 252 -301 296
-37 11 -159 22 -166 14z"/>
<path d="M1689 3816 c-67 -19 -143 -63 -189 -110 -22 -23 -105 -129 -185 -236
-80 -107 -154 -206 -165 -220 -10 -14 -53 -72 -96 -130 -43 -58 -84 -111 -91
-118 -7 -8 -17 -21 -22 -31 -9 -15 -29 -17 -178 -18 -184 -1 -228 -9 -315 -55
-99 -53 -197 -177 -214 -275 -3 -14 -7 -30 -10 -34 -9 -15 -5 -745 4 -770 12
-29 44 -59 69 -64 10 -2 97 -4 193 -4 l175 -1 19 -58 c120 -371 589 -500 878
-242 71 63 130 151 158 235 l22 65 941 -2 941 -3 11 -46 c36 -141 163 -281
312 -343 79 -33 119 -40 218 -40 166 1 326 82 431 219 30 40 80 142 89 183 l7
32 181 0 c164 0 185 2 215 20 18 11 37 32 42 46 7 16 10 172 10 395 -1 302 -4
378 -16 421 -44 150 -164 267 -314 308 -30 8 -139 13 -323 13 l-277 1 -268
355 c-147 196 -286 374 -309 396 -50 49 -133 93 -206 110 -79 18 -1674 19
-1738 1z"/>
</g>
</svg>
