<?xml version="1.0"?>
<svg xmlns="http://www.w3.org/2000/svg" viewBox="0 0 64 64" width="512" height="512"><g fill="#fb8122" id="outline"><path d="M35,23.2a4,4,0,1,0-4-4A4,4,0,0,0,35,23.2Zm0-6a2,2,0,1,1-2,2A2,2,0,0,1,35,17.2Z"/><path d="M61.677,32.264a1,1,0,0,0-1.124-.159l-1.428.714-3.679-2.943a4.012,4.012,0,0,0-2.5-.876H45.535l-1.094-1.64,3.844-2.069A3.032,3.032,0,0,0,49.7,21.425l-2.286-4.66a2.806,2.806,0,0,0-4.162-1.293,2.832,2.832,0,0,0-1.074,3.305L43.2,21.131l-5.789,3.137a3,3,0,0,0-1.057,4.261l2.923,4.69A4,4,0,0,0,42.605,35H49v7a1,1,0,0,0,1,1h6a1,1,0,0,0,.707-1.707L55,39.586v-2.82l3.485,2.091a1,1,0,0,0,1.444-.485l2-5A1,1,0,0,0,61.677,32.264ZM51,41V34a1,1,0,0,0-1-1h-7.4a1.985,1.985,0,0,1-1.647-.865l-2.923-4.69a1,1,0,0,1,.337-1.424l6.587-3.568a1,1,0,0,0,.441-1.278l-1.358-3.113a.807.807,0,0,1,.318-.926.8.8,0,0,1,.685-.1.855.855,0,0,1,.54.539l2.286,4.66a1.014,1.014,0,0,1-.508,1.28l-4.837,2.6a1,1,0,0,0-.358,1.435l2,3A1,1,0,0,0,45,31h7a1,1,0,0,1,1,1v8a1,1,0,0,0,.293.707l.293.293Zm7.508-4.461L55,34.434V32.08l3.375,2.7a1.009,1.009,0,0,0,.751.211Z"/><path d="M43,37H38.5l-4.826-6.39a4.013,4.013,0,0,0-3.188-1.594H30.47l-13.985-.057a4.027,4.027,0,0,0-3.183,1.6L8.5,37H6a4,4,0,0,0-4,4v6a1,1,0,0,0,1,1H6.1A5,5,0,0,0,11,52h.018A5,5,0,0,0,15.9,48H33.1A5,5,0,0,0,38,52h.018A5,5,0,0,0,42.9,48H46a1,1,0,0,0,1-1V41A4,4,0,0,0,43,37ZM30.469,31.016h.008a2.01,2.01,0,0,1,1.6.8L35.992,37H24.024L24,30.99ZM14.9,31.755a2.012,2.012,0,0,1,1.583-.8L22,30.982,22.024,37H10.993ZM11.011,50H11a3,3,0,0,1-.011-6H11a3,3,0,0,1,.011,6Zm3.512-6.548A5.053,5.053,0,0,0,10.982,42,5,5,0,0,0,6.1,46H4V41a2,2,0,0,1,2-2H22.031l.022,7H15.9A4.958,4.958,0,0,0,14.523,43.452ZM38.011,50H38a3,3,0,0,1-.011-6H38a3,3,0,0,1,.011,6ZM45,46H42.9a4.958,4.958,0,0,0-1.377-2.548,5,5,0,0,0-7.071.025A4.958,4.958,0,0,0,33.1,46h-9.05l-.022-7H43a2,2,0,0,1,2,2Z"/><path d="M13.485,24.857l5,3,1.03-1.714L16.243,24.18l3.129-1.251a1,1,0,0,0,.577-1.245l-1.368-4.1,4.1,1.368a1,1,0,0,0,1.245-.577l1.362-3.407,2.928,3.66,1.562-1.25-4-5a1,1,0,0,0-1.71.253l-1.649,4.125-5.106-1.7a1,1,0,0,0-1.265,1.265l1.7,5.106-4.125,1.649a1,1,0,0,0-.143,1.786Z"/></g></svg>
